<?xml version="1.0" encoding="UTF-8" standalone="no"?>
<!-- Created with Inkscape (http://www.inkscape.org/) -->
<svg xmlns:dc="http://purl.org/dc/elements/1.1/" xmlns:cc="http://creativecommons.org/ns#" xmlns:rdf="http://www.w3.org/1999/02/22-rdf-syntax-ns#" xmlns:svg="http://www.w3.org/2000/svg" xmlns="http://www.w3.org/2000/svg" xmlns:sodipodi="http://sodipodi.sourceforge.net/DTD/sodipodi-0.dtd" xmlns:inkscape="http://www.inkscape.org/namespaces/inkscape" width="1000" height="218.06" viewBox="0 0 264.58333 57.695043" version="1.1" id="svg8" inkscape:version="0.92.2 (5c3e80d, 2017-08-06)" sodipodi:docname="Mercari.svg">
  <defs id="defs2">
    <style id="style815">.cls-1{fill:#5e6df2;}</style>
  </defs>
  <sodipodi:namedview id="base" pagecolor="#ffffff" bordercolor="#666666" borderopacity="1.0" inkscape:pageopacity="0.0" inkscape:pageshadow="2" inkscape:zoom="0.49497475" inkscape:cx="319.8707" inkscape:cy="391.07596" inkscape:document-units="px" inkscape:current-layer="layer1" showgrid="false" units="px" inkscape:window-width="1366" inkscape:window-height="705" inkscape:window-x="-8" inkscape:window-y="-8" inkscape:window-maximized="1"/>
  <metadata id="metadata5">
    <rdf:RDF>
      <cc:Work rdf:about="">
        <dc:format>image/svg+xml</dc:format>
        <dc:type rdf:resource="http://purl.org/dc/dcmitype/StillImage"/>
        <dc:title/>
      </cc:Work>
    </rdf:RDF>
  </metadata>
  <g inkscape:label="Layer 1" inkscape:groupmode="layer" id="layer1" transform="translate(0,-239.30495)">
    <g id="g851" transform="matrix(0.41731037,0,0,0.41731037,-0.41731037,238.89371)">
      <polygon id="polygon821" points="182.72,53.69 120.35,53.69 120.35,137.92 182.72,137.92 182.72,120.69 139.01,120.69 139.01,104.69 180.7,104.69 180.7,87.7 139.01,87.7 139.01,70.92 182.72,70.92 " class="cls-1" style="fill:#5e6df2"/>
      <path id="path823" d="m 282,66.76 c 0,-8.58 -3.09,-15.42 -9.2,-20.33 -5.95,-4.88 -13.73,-7.35 -23.11,-7.35 h -34.9 v 84.22 h 18.66 V 96.58 h 13.39 l 16.39,26.72 h 21.2 L 265.84,93 A 28.65,28.65 0 0 0 282,66.76 Z M 233.45,56.3 h 13.18 c 11.51,0 16.87,3.63 16.87,11.41 0,7.78 -5.5,11.76 -16.87,11.76 h -13.18 z" class="cls-1" inkscape:connector-curvature="0" style="fill:#5e6df2"/>
      <path id="path825" d="m 373.09,110.31 c -5.61,7.59 -13.07,11.45 -22.19,11.45 a 24.66,24.66 0 0 1 -17.84,-7 c -4.79,-4.67 -7.22,-11.11 -7.22,-19.14 0,-8.03 2.43,-14.22 7.22,-18.78 a 23.56,23.56 0 0 1 16.89,-7 26,26 0 0 1 21.71,11.08 l 0.33,0.47 12.58,-12.83 -0.27,-0.33 c -8.49,-10.52 -19.76,-15.86 -33.51,-15.86 -12.55,0 -23.13,4 -31.46,12 -8.33,8 -12.62,18.54 -12.62,31.63 0,12.91 4.25,23.46 12.63,31.36 8.38,7.9 19.26,11.88 32,11.88 14.1,0 25.62,-5.33 34.23,-15.85 l 0.26,-0.33 -12.44,-13.19 z" class="cls-1" inkscape:connector-curvature="0" style="fill:#5e6df2"/>
      <path id="path827" d="m 453.23,39.08 h -17.52 l -32.71,83.57 -0.25,0.65 h 19.32 l 6,-15.09 h 32.59 l 6.13,15.09 H 486.1 L 453.3,39.38 Z m 1.38,52.49 h -20.27 l 10.13,-26.68 z" class="cls-1" inkscape:connector-curvature="0" style="fill:#5e6df2"/>
      <path id="path829" d="m 577.65,81.37 c 0,-8.58 -3.1,-15.42 -9.2,-20.33 -6.1,-4.91 -13.73,-7.35 -23.11,-7.35 h -34.93 v 84.23 h 18.66 v -26.73 h 13.39 l 16.39,26.73 h 21.2 L 561.46,107.58 A 28.65,28.65 0 0 0 577.65,81.37 Z M 529.07,70.92 h 13.18 c 11.51,0 16.86,3.62 16.86,11.4 0,7.78 -5.51,11.76 -16.86,11.76 h -13.18 z" class="cls-1" inkscape:connector-curvature="0" style="fill:#5e6df2"/>
      <rect id="rect831" height="76.919998" width="18.540001" y="46.380001" x="607.95001" class="cls-1" style="fill:#5e6df2"/>
      <rect id="rect833" transform="rotate(-67.12,620.58387,15.466255)" height="22.049999" width="22.049999" y="4.4200001" x="609.59003" class="cls-1" style="fill:#5e6df2"/>
      <path id="path835" d="M 44.39,84.67 68.25,39.08 h 19 V 123.3 H 68.5 V 75.21 H 68.28 L 50.21,107.72 H 38.08 L 20,75.26 h -0.23 v 48 H 1 V 39.08 h 19 l 24,45.59 z" class="cls-1" inkscape:connector-curvature="0" style="fill:#5e6df2"/>
    </g>
  </g>
</svg>