<svg width="368" height="92" viewBox="0 0 368 92" fill="none" xmlns="http://www.w3.org/2000/svg">
<path fill-rule="evenodd" clip-rule="evenodd" d="M124.356 7.79036C121.957 8.74079 119.916 10.0828 118.236 11.8153C116.557 13.5454 115.288 15.6003 114.432 17.9769C113.574 20.3542 113.145 23.0025 113.145 25.9235V30.3031H95.1459V25.9235C95.1459 24.6328 95.3692 23.5803 95.8151 22.7654C96.2604 21.9499 96.8092 21.3052 97.4603 20.8294C98.1119 20.3542 98.8319 20.0324 99.6203 19.8622C100.409 19.6915 101.146 19.6067 101.832 19.6067C102.997 19.6067 103.957 19.6581 104.712 19.7601C105.465 19.8622 106.048 19.9805 106.459 20.1166L107.271 7.48412C106.517 7.14501 104.608 6.87338 103.169 6.66922C101.729 6.46621 100.357 6.36414 99.0546 6.36414C95.9694 6.36414 93.2091 6.83993 90.7756 7.79036C88.3414 8.74079 86.2842 10.0828 84.6045 11.8153C82.9243 13.5454 81.6555 15.6003 80.7987 17.9769C79.942 20.3542 79.513 23.0025 79.513 25.9235V30.3031H70.6196C70.3118 29.3801 69.9658 28.4769 69.5817 27.5936C67.6473 23.1448 65.0255 19.3459 61.7141 16.1965C58.4027 13.047 54.5677 10.6277 50.2073 8.93905C45.8474 7.25041 41.2088 6.40668 36.292 6.40668C31.3734 6.40668 26.719 7.25041 22.3258 8.93905C17.9327 10.6277 14.0807 13.047 10.7699 16.1965C7.45909 19.3459 4.83558 23.1448 2.9017 27.5936C0.966648 32.0424 0 36.9941 0 42.4493C0 47.9044 0.966648 52.8388 2.9017 57.2548C4.83558 61.6713 7.45909 65.4534 10.7699 68.6034C14.0807 71.7529 17.9327 74.1716 22.3258 75.8603C26.719 77.5489 31.3734 78.3932 36.292 78.3932C41.2088 78.3932 45.8474 77.5489 50.2073 75.8603C54.5677 74.1716 58.4027 71.7529 61.7141 68.6034C65.0255 65.4534 67.6473 61.6713 69.5817 57.2548C71.41 53.0814 72.3743 48.4448 72.4747 43.3433H79.513V77.6465H95.1459V43.3433H113.145V77.6465H128.778V43.3433H136.964L139.886 30.3031H128.778V25.9235C128.778 24.6328 129.001 23.5803 129.447 22.7654C129.893 21.9499 130.441 21.3052 131.092 20.8294C131.744 20.3542 132.464 20.0324 133.253 19.8622C134.041 19.6915 134.778 19.6067 135.463 19.6067C136.629 19.6067 137.59 19.6581 138.344 19.7601C139.098 19.8622 139.68 19.9805 140.092 20.1166L140.902 7.38262C140.148 7.04293 138.24 6.78802 136.801 6.61905C135.361 6.44891 133.956 6.36414 132.584 6.36414C129.498 6.36414 126.755 6.83993 124.356 7.79036ZM275.984 49.7264V6.36414H292.235V51.0506C292.235 55.6015 291.48 59.5912 289.972 63.0209C288.464 66.4507 286.406 69.3366 283.801 71.6798C281.195 74.0224 278.127 75.7883 274.595 76.9764C271.064 78.165 267.311 78.7602 263.334 78.7602C259.288 78.7602 255.517 78.165 252.021 76.9764C248.523 75.7883 245.473 74.0224 242.867 71.6798C240.261 69.3366 238.203 66.4507 236.695 63.0209C235.187 59.5912 234.432 55.6015 234.432 51.0506V6.36414H250.683V49.7264C250.683 54.1412 251.815 57.4354 254.078 59.6079C256.34 61.7816 259.425 62.8681 263.334 62.8681C267.241 62.8681 270.327 61.7816 272.59 59.6079C274.853 57.4354 275.984 54.1412 275.984 49.7264ZM317.908 25.1248C320.515 23.8001 323.668 23.138 327.371 23.138C331.074 23.138 334.399 23.8001 337.347 25.1248C340.296 26.4489 342.782 28.2835 344.805 30.6255C346.827 32.9693 348.387 35.7531 349.484 38.9793C350.581 42.2049 351.129 46.254 351.129 50.0575C351.129 53.9284 350.529 58.0289 349.33 61.2891C348.129 64.5487 346.45 67.3498 344.29 69.693C342.13 72.0356 339.558 73.8702 336.576 75.1943C333.593 76.5185 330.319 77.1805 326.753 77.1805C323.462 77.1805 320.617 76.688 318.217 75.7036C315.818 74.718 314.035 73.5132 312.868 72.087V91.0587H297.236V24.3607H312.355V29.5569C313.452 27.9259 315.303 26.4489 317.908 25.1248ZM320.475 61.9753C321.88 62.5192 323.338 62.792 324.846 62.792C326.354 62.792 327.811 62.5359 329.218 62.0272C330.622 61.518 331.874 60.7365 332.971 59.684C334.068 58.6321 334.925 57.3068 335.542 55.711C336.16 54.1158 336.468 52.2651 336.468 50.1595C336.468 48.0539 336.16 45.9524 335.542 44.3906C334.925 42.8283 334.068 41.5214 332.971 40.4689C331.874 39.4164 330.622 38.635 329.218 38.1257C327.811 37.6165 326.354 37.3616 324.846 37.3616C323.338 37.3616 321.88 37.6165 320.475 38.1257C319.069 38.635 317.835 39.4164 316.772 40.4689C315.709 41.5214 314.869 42.8283 314.252 44.3906C313.635 45.9524 313.326 48.0539 313.326 50.1595C313.326 52.2651 313.635 54.0979 314.252 55.6597C314.869 57.222 315.709 58.5294 316.772 59.5825C317.835 60.635 319.069 61.4326 320.475 61.9753ZM221.824 24.7258C220.613 24.8838 219.335 25.1474 218.101 25.6907C216.867 26.2334 213.529 27.9485 212.398 30.7133V24.6716H197.278V77.4402H212.911V53.1949C212.911 50.6816 213.237 48.5426 213.889 46.7778C214.54 45.0113 215.414 43.5857 216.511 42.4985C217.608 41.4126 218.877 40.6311 220.317 40.1559C221.756 39.6807 223.12 39.3151 224.843 39.1813C226.564 39.048 228.624 39.2263 229.515 39.4298L229.779 25.1532C228.613 24.8135 226.855 24.5234 225.664 24.5234C224.522 24.5234 223.06 24.5649 221.824 24.7258ZM156.949 26.0778C160.035 24.8211 163.223 24.1931 166.514 24.1931C174.468 24.1931 180.725 26.4677 185.284 31.018C189.843 35.5683 192.124 41.952 192.124 50.1696C192.124 51.2562 192.09 52.292 192.02 53.2758C191.953 54.2615 191.884 54.822 191.815 54.9576H156.229C156.297 56.3838 156.657 57.6906 157.309 58.8798C157.96 60.0684 158.817 61.1036 159.88 61.986C160.942 62.869 162.16 63.5483 163.531 64.0241C164.902 64.4994 166.342 64.7364 167.851 64.7364C170.73 64.7364 172.976 64.1256 174.588 62.9042C176.199 61.6809 177.382 60.0852 178.135 58.1151L191.199 61.783C190.58 63.9555 189.621 66.0277 188.319 67.9971C187.015 69.9666 185.37 71.6812 183.382 73.1409C181.393 74.6012 179.078 75.7557 176.439 76.6047C173.798 77.453 170.868 77.8781 167.645 77.8781C164.148 77.8781 160.788 77.2667 157.566 76.0441C154.343 74.8226 151.498 73.0567 149.029 70.7469C146.562 68.4383 144.607 65.6199 143.167 62.2917C141.727 58.964 141.007 55.1611 141.007 50.883C141.007 46.8079 141.71 43.1233 143.115 39.8297C144.521 36.536 146.407 33.7349 148.772 31.4257C151.138 29.1171 153.863 27.3339 156.949 26.0778ZM157.641 41.6914C157.195 42.7098 156.938 43.6949 156.869 44.6459H177.336C177.268 43.6949 177.045 42.7098 176.668 41.6914C176.291 40.6734 175.69 39.7559 174.868 38.941C174.045 38.1261 173 37.4467 171.731 36.9034C170.463 36.3602 168.903 36.0885 167.052 36.0885C165.406 36.0885 163.965 36.3602 162.732 36.9034C161.497 37.4467 160.452 38.1261 159.594 38.941C158.738 39.7559 158.086 40.6734 157.641 41.6914ZM29.3786 61.2624C31.6842 62.0439 34.005 62.4349 36.3421 62.4349C38.6793 62.4349 40.9995 62.0439 43.305 61.2624C45.6112 60.4798 47.6795 59.2606 49.5105 57.6026C51.3421 55.9451 52.8266 53.8643 53.9639 51.363C55.1006 48.8607 55.6693 45.8577 55.6693 42.3541C55.6693 38.9146 55.1006 35.911 53.9639 33.3469C52.8266 30.7817 51.3421 28.6859 49.5105 27.0596C47.6795 25.4338 45.6112 24.2129 43.305 23.3997C40.9995 22.5871 38.6793 22.1799 36.3421 22.1799C34.005 22.1799 31.6842 22.5871 29.3786 23.3997C27.0737 24.2129 24.989 25.4338 23.1264 27.0596C21.2627 28.6859 19.763 30.7817 18.6257 33.3469C17.489 35.911 16.9203 38.9146 16.9203 42.3541C16.9203 45.8577 17.489 48.8607 18.6257 51.363C19.763 53.8643 21.2627 55.9451 23.1264 57.6026C24.989 59.2606 27.0737 60.4798 29.3786 61.2624Z" fill="#00A87E"/>
<path d="M351.634 12.1181C351.634 11.4708 351.716 10.8489 351.881 10.2524C352.053 9.64959 352.291 9.088 352.595 8.56765C352.9 8.0473 353.265 7.57454 353.69 7.14938C354.121 6.71787 354.597 6.34982 355.118 6.04523C355.638 5.74063 356.196 5.50584 356.793 5.34085C357.389 5.16952 358.011 5.08385 358.659 5.08385C359.306 5.08385 359.928 5.16952 360.524 5.34085C361.127 5.50584 361.689 5.74063 362.209 6.04523C362.729 6.34982 363.202 6.71787 363.627 7.14938C364.059 7.57454 364.427 8.0473 364.731 8.56765C365.036 9.088 365.271 9.64959 365.436 10.2524C365.607 10.8489 365.693 11.4708 365.693 12.1181C365.693 12.759 365.607 13.3809 365.436 13.9837C365.271 14.5802 365.036 15.1386 364.731 15.659C364.427 16.173 364.059 16.6457 363.627 17.0772C363.202 17.5024 362.729 17.8673 362.209 18.1719C361.689 18.4765 361.127 18.7144 360.524 18.8858C359.928 19.0508 359.306 19.1333 358.659 19.1333C358.011 19.1333 357.389 19.0508 356.793 18.8858C356.196 18.7144 355.638 18.4765 355.118 18.1719C354.597 17.8673 354.121 17.5024 353.69 17.0772C353.265 16.6457 352.9 16.173 352.595 15.659C352.291 15.1386 352.053 14.5802 351.881 13.9837C351.716 13.3872 351.634 12.7653 351.634 12.1181ZM352.919 12.1181C352.919 12.943 353.065 13.714 353.357 14.4311C353.655 15.1482 354.061 15.7732 354.575 16.3062C355.095 16.8329 355.705 17.2486 356.403 17.5532C357.101 17.8578 357.853 18.0101 358.659 18.0101C359.464 18.0101 360.22 17.8578 360.924 17.5532C361.628 17.2486 362.241 16.8329 362.761 16.3062C363.281 15.7732 363.691 15.1482 363.989 14.4311C364.287 13.714 364.436 12.943 364.436 12.1181C364.436 11.566 364.367 11.0361 364.227 10.5285C364.094 10.0208 363.903 9.54806 363.656 9.11021C363.408 8.66601 363.107 8.26623 362.752 7.91087C362.403 7.54916 362.015 7.24139 361.59 6.98757C361.165 6.72739 360.705 6.5275 360.21 6.3879C359.715 6.24829 359.198 6.17849 358.659 6.17849C358.119 6.17849 357.602 6.24829 357.107 6.3879C356.618 6.5275 356.162 6.72739 355.736 6.98757C355.311 7.24139 354.924 7.54916 354.575 7.91087C354.232 8.26623 353.937 8.66601 353.69 9.11021C353.442 9.54806 353.252 10.0208 353.119 10.5285C352.986 11.0361 352.919 11.566 352.919 12.1181ZM357.593 13.2698V16.3634H355.556V7.8252H358.611C359.798 7.8252 360.667 8.03778 361.219 8.46294C361.771 8.88811 362.047 9.49729 362.047 10.2905C362.047 10.8553 361.901 11.3502 361.609 11.7754C361.317 12.1942 360.864 12.502 360.248 12.6987C360.394 12.7812 360.515 12.8859 360.61 13.0128C360.705 13.1334 360.8 13.2762 360.895 13.4412L362.618 16.3634H360.657C360.372 16.3634 360.172 16.2587 360.058 16.0492L358.687 13.5459C358.624 13.457 358.551 13.3904 358.468 13.346C358.392 13.2952 358.275 13.2698 358.116 13.2698H357.593ZM357.593 11.8135H358.44C358.763 11.8135 359.03 11.7881 359.239 11.7373C359.449 11.6802 359.61 11.5977 359.725 11.4898C359.845 11.382 359.928 11.2487 359.972 11.0901C360.017 10.9314 360.039 10.7506 360.039 10.5475C360.039 10.3508 360.02 10.1795 359.982 10.0335C359.944 9.88121 359.871 9.75747 359.763 9.66228C359.661 9.56075 359.515 9.48778 359.325 9.44336C359.141 9.39259 358.903 9.36721 358.611 9.36721H357.593V11.8135Z" fill="#00A87E"/>
</svg>