<?xml version="1.0" encoding="UTF-8" standalone="no"?>
<!-- Generator: Adobe Illustrator 27.0.0, SVG Export Plug-In . SVG Version: 6.00 Build 0)  -->

<svg
   version="1.1"
   id="Layer_1"
   x="0px"
   y="0px"
   viewBox="0 0 500 500"
   style="enable-background:new 0 0 500 500;"
   xml:space="preserve"
   sodipodi:docname="Reverb Logo Vector.svg"
   inkscape:version="1.3.2 (091e20ef0f, 2023-11-25)"
   xmlns:inkscape="http://www.inkscape.org/namespaces/inkscape"
   xmlns:sodipodi="http://sodipodi.sourceforge.net/DTD/sodipodi-0.dtd"
   xmlns="http://www.w3.org/2000/svg"
   xmlns:svg="http://www.w3.org/2000/svg"><defs
   id="defs92" /><sodipodi:namedview
   id="namedview92"
   pagecolor="#505050"
   bordercolor="#ffffff"
   borderopacity="1"
   inkscape:showpageshadow="0"
   inkscape:pageopacity="0"
   inkscape:pagecheckerboard="1"
   inkscape:deskcolor="#505050"
   inkscape:zoom="1.786"
   inkscape:cx="249.72004"
   inkscape:cy="248.32027"
   inkscape:window-width="1920"
   inkscape:window-height="1131"
   inkscape:window-x="0"
   inkscape:window-y="0"
   inkscape:window-maximized="1"
   inkscape:current-layer="Layer_1" />

<g
   id="g92">
</g>
<path
   style="fill:#494849;"
   d="M469.878,260.244c-2.758-2.758-7.092-4.334-13.002-4.334c-6.698,0-11.032,2.758-14.184,5.122  c-1.576,1.182-2.758,1.97-3.94,1.97h-0.394c-0.788,0-1.182-0.394-1.576-0.788c-0.788-1.182-0.394-3.546,0.394-5.91  c0-0.394,0.394-1.182,0.788-2.364l0,0c2.364-7.092,8.668-27.974,8.668-36.247c0-4.728-0.788-7.88-3.152-9.85  c-2.364-2.364-6.304-3.546-11.82-3.546c-2.364,0-3.94,0.788-5.122,1.97c-3.546,3.546-3.152,11.032-2.758,16.154  c0,1.182,0,2.364,0,3.152c0,13.396-3.546,22.458-6.698,31.519l-0.394,1.576l-0.394,0.788c-0.394,0.394-2.758,2.364-5.516,4.334  c-4.334,3.546-5.91,3.94-6.304,3.94c0,0,0-0.394,0-1.576c0-0.788,0.394-1.576,0.394-2.364c0-0.394,0-0.788,0-0.788  c0-2.758-0.394-4.334-1.182-5.516c-1.182-1.576-2.758-1.97-5.122-1.97c-7.092,0-10.638,5.516-12.608,7.88l0,0  c-0.394,0.394-0.788,0.788-1.182,1.576c-1.576,2.364-1.97,3.152-3.546,3.152c-0.394,0-1.182-0.394-1.182-0.788  c-0.788-0.788-0.788-1.576,0-4.334c0-0.788,0.394-1.182,0.394-1.97c0.394-2.364,0.788-3.546,0.394-3.94  c-0.788-1.182-3.94-1.576-9.456-1.576c-4.728,0-8.274,1.576-10.638,4.728c-1.97,2.758-2.364,6.304-2.364,7.88  c0,4.728-2.364,14.184-3.94,22.852l-0.394,0.788c-3.546,3.546-13.002,11.82-22.852,11.82c-6.304,0-10.638-3.152-13.002-5.516  c-2.758-3.152-3.94-6.698-3.94-8.668c0-0.788,0-1.182,0-1.576c0.394-0.788,1.182-1.576,1.97-1.576c0.394,0,0.394,0,0.788,0  s0.788,0,1.576,0c0.394,0,0.394,0,0.788,0c0.394,0,7.88-0.394,14.972-3.94c7.88-3.546,11.82-9.456,11.82-16.548  c0-4.334-1.182-7.092-3.152-9.062c-2.758-2.364-7.092-3.546-13.396-3.546c-16.548,0-29.549,7.486-34.671,20.094l-0.788,1.97  l-1.576-1.576c-5.91-5.122-8.274-11.032-9.062-13.002l0,0l0,0c-0.394-2.364-1.182-3.94-2.758-5.122  c-1.182-1.182-3.152-1.576-5.516-1.576c-0.394,0-2.758,0-5.122,1.182c-3.152,1.576-4.728,3.94-4.728,7.486  c0,1.576,1.576,3.152,3.152,4.728c1.97,1.97,3.94,3.94,3.152,6.304c-1.576,4.334-5.122,13.396-8.274,17.73  c-4.334,5.91-9.062,8.668-14.184,8.668h-0.394c-2.758,0-3.94-1.182-4.728-2.364c-1.576-1.97-1.97-5.516-1.182-10.244  c0.788-4.728,2.364-10.638,3.94-15.76c1.182-3.152,1.97-5.91,1.97-7.486c0-1.182,0.394-1.97,0.394-2.758  c0.788-2.758,0.788-4.728,0.394-5.516c-0.788-0.788-3.152-1.182-6.698-1.182c-10.638,0-14.578,11.426-15.366,13.79  c-0.394,1.97-1.182,3.546-1.576,5.516l0,0c-1.576,5.122-3.152,10.244-3.94,16.154v0.394l-0.394,0.394  c-0.394,0.394-11.82,13.002-23.64,13.002c-5.122,0-9.456-1.182-12.214-3.546c-2.758-1.97-3.546-4.728-4.334-6.304  c-0.394-0.788-0.394-1.182,0-1.576c1.97-0.788,13.79-5.516,20.094-9.85c7.092-4.728,11.82-9.062,11.82-16.548  c0-4.334-1.182-7.092-3.152-9.062c-2.758-2.364-7.092-3.546-13.396-3.546c-10.244,0-19.7,3.152-26.398,8.668  c-7.092,6.304-11.032,14.972-11.032,25.61v4.728c-0.394,0.394-1.182,1.182-3.152,1.576c-1.97,0.788-5.122,1.576-9.456,1.576  c-4.728,0-9.062-3.152-13.002-9.85c-3.152-5.516-5.516-12.214-6.304-15.76c-2.364-8.274-5.516-11.82-7.88-13.79  c-0.394-0.394-0.394-0.394-0.788-0.788c-1.182-1.182-2.364-2.364-1.576-3.152c0.394-0.394,1.97-1.182,3.94-1.97  c5.122-1.97,13.396-5.516,20.882-11.426c8.668-7.092,13.396-16.154,13.396-26.004c0-5.516-1.182-9.85-3.94-13.79  c-2.758-3.546-6.698-6.698-11.82-8.668c-8.668-3.152-18.518-3.94-26.004-3.94c-6.304,0-27.58,0.394-48.067,7.092  c-26.003,10.244-39.399,24.428-40.581,44.127c-0.394,5.91,1.182,10.638,4.334,14.184s7.88,5.122,14.184,5.122  c6.698,0,13.396-2.758,18.124-7.486c3.152-3.152,4.334-6.304,4.728-8.668v-0.788l-0.788,0.394c-1.97,0.394-3.546,0.788-5.122,0.788  c-3.546,0-6.304-1.576-7.486-4.334c-1.182-2.364-1.576-5.516-1.576-7.092c0-7.88,5.516-16.548,14.578-23.246  c8.668-6.698,19.7-10.244,29.156-10.638c-1.576,2.364-5.91,9.062-7.88,14.972c-2.758,7.88-23.64,78.799-27.186,94.164  c-1.182,5.516-0.394,7.486,0,8.274c0.394-0.394,0.788,0,2.364,0c0.394,0,0.394,0,0.788,0c0.394,0,0.394,0,1.182,0  c0.788,0,1.576,0,2.758,0l0,0c1.576,0,3.152,0,4.728,0c4.728,0,8.274-0.394,10.244-1.182c1.576-0.788,1.97-1.182,1.97-1.576  c0.394-5.91,1.576-14.184,3.546-22.064c0.788-4.334,2.758-10.638,4.334-16.548l0,0c1.576-5.516,3.152-11.032,3.546-13.79  c0.394-2.758,2.758-3.152,3.546-3.152c1.97,0,3.94,1.576,5.122,2.758c2.758,3.546,5.516,9.456,5.122,19.306  c-0.394,7.88,0,21.67,7.092,29.549c3.546,3.546,8.274,5.516,14.184,5.516h0.394c7.88,0,15.76-3.152,20.882-5.91  c4.728-2.364,8.274-4.728,9.456-6.304c1.576,3.94,7.486,13.002,26.004,13.002c7.092,0,14.184-1.576,21.67-5.122  c5.91-2.758,9.85-5.91,12.214-7.486c0.394-0.394,0.788-0.788,1.182-0.788c0.394,0.394,0.394,1.182,0.394,1.97  c0,0.788-0.394,4.334,2.364,7.092c2.364,2.364,6.304,3.94,11.426,3.94c9.062,0,19.306-3.546,27.974-9.456  c9.062-6.698,15.76-15.76,18.518-25.61l0.788-2.758l1.97,1.97c1.97,1.97,4.334,3.546,7.092,5.122l1.182,0.394v1.182  c-0.394,1.97-0.394,3.94-0.394,5.91l0,0c0,0.394,0,5.91,1.182,9.85c0,0,0.788,3.546,4.728,7.092c2.364,1.97,4.728,3.546,7.88,4.728  c3.94,1.576,8.274,1.97,13.396,1.97c15.366,0,25.216-7.092,29.944-11.426l3.546-3.546l-1.182,4.728  c-0.394,1.182-1.182,5.122-1.182,6.304c0,1.182,0,1.97,0.394,2.364v0.394h15.366c0.394,0,0.394,0,0.788,0l0,0  c0.394,0,0.394,0,0.788,0c1.182,0,1.576,0,1.97-0.394c0.394-0.394,0.788-1.182,0.788-1.97c1.182-23.246,9.456-34.277,12.608-38.217  l0,0l0,0c0.788-1.182,1.576-1.97,2.758-1.97c0.788,0,1.576,0.394,1.576,1.576l0,0l0,0c0.394,1.182,2.758,5.122,7.092,5.516h0.394  c0.788,0,1.97,0,3.152-0.394l0,0c3.152-1.182,5.91-2.758,9.062-5.122c0.788-0.394,1.182-1.182,1.97-1.576l3.94-3.94l-1.182,5.516  c-1.576,5.91-2.364,11.426-2.364,17.73c0,8.274,2.364,14.184,6.698,18.518c4.334,3.94,10.638,5.91,18.518,5.91l0,0  c1.182,0,10.638,0,20.094-5.122C468.696,301.219,475,289.793,475,273.246C474.212,267.73,472.636,263.396,469.878,260.244z   M452.542,282.701c-1.576,6.698-4.334,13.002-7.486,18.124c-1.576,2.758-3.152,4.728-4.728,5.91  c-1.576,1.576-3.152,2.364-4.728,2.364c-2.758,0-4.728-2.364-5.91-6.304c-1.182-4.334-0.788-10.244,0.394-16.942  c1.576-6.304,3.94-12.608,6.698-16.154c2.364-3.546,5.516-5.122,8.274-5.516l0,0c0.394,0,0.394,0,1.182,0  c1.576,0,3.94,0.394,5.91,2.758C454.512,270.094,454.512,275.216,452.542,282.701z M315.827,274.034l0.394-0.788  c2.364-4.728,6.304-13.002,13.79-13.396l0,0c0,0,0.394,0,0.788,0c1.576,0,3.152,0.394,3.94,1.576  c1.182,0.788,1.576,2.364,1.576,4.728c0,3.546-3.546,8.274-6.698,11.426c-4.334,4.334-9.062,6.698-13.002,6.698  c-0.788,0-1.576-0.394-1.97-1.182C313.069,281.125,314.251,277.186,315.827,274.034z M196.447,259.85c0,0,0.394,0,0.788,0  c1.576,0,3.152,0.394,3.94,1.576c1.182,1.182,1.97,2.758,1.97,4.728c0,3.546-3.546,8.274-6.698,11.426  c-4.334,4.334-12.214,9.062-16.548,9.456c0-0.394,0-1.182-0.394-1.576c-0.788-3.152,1.576-9.85,2.758-11.82l0.394-0.788  C185.415,268.518,188.961,260.638,196.447,259.85L196.447,259.85z M116.86,194.841c0.394,0,0.394-0.394,0.394-0.394  c0.394-0.394,0.788-0.394,1.182-0.394c1.576,0,5.91,1.576,9.456,5.516c2.364,2.758,5.122,7.486,4.334,14.578  c-0.788,7.486-2.758,14.184-5.516,19.306c-2.364,4.334-5.516,7.88-9.062,10.638c-6.304,4.728-13.396,5.122-16.548,5.122  c-1.182,0-1.576,0-1.97,0l0,0c-0.788,0-1.182-0.394-1.576-0.788c-0.788-1.182-0.394-3.152,1.576-8.668  c0.394-0.788,0.394-1.576,0.788-2.758c7.88-26.004,13.396-38.217,14.184-39.399C114.89,196.023,116.072,195.235,116.86,194.841z"
   id="path92" />
</svg>
