<?xml version="1.0" encoding="UTF-8" standalone="no"?>
<!-- Created with Inkscape (http://www.inkscape.org/) -->
<svg xmlns:dc="http://purl.org/dc/elements/1.1/" xmlns:cc="http://creativecommons.org/ns#" xmlns:rdf="http://www.w3.org/1999/02/22-rdf-syntax-ns#" xmlns:svg="http://www.w3.org/2000/svg" xmlns="http://www.w3.org/2000/svg" xmlns:xlink="http://www.w3.org/1999/xlink" xmlns:sodipodi="http://sodipodi.sourceforge.net/DTD/sodipodi-0.dtd" xmlns:inkscape="http://www.inkscape.org/namespaces/inkscape" width="178.32916mm" height="38.893749mm" viewBox="0 0 178.32916 38.893749" version="1.1" id="svg8" inkscape:version="0.92.5 (2060ec1f9f, 2020-04-08)" sodipodi:docname="wayfair logo.svg">
  <defs id="defs2">
    <clipPath clipPathUnits="userSpaceOnUse" id="clipPath20">
      <path d="M 84.7617,710.492 C -60.9023,479.84 -14.1758,188.852 189.203,60.4062 392.484,-67.9414 675.383,14.9297 821.039,245.648 966.637,476.273 990.941,879.887 787.621,1008.25 584.312,1136.64 230.348,941.117 84.7617,710.492" id="path18" inkscape:connector-curvature="0"/>
    </clipPath>
    <radialGradient fx="0" fy="0" cx="0" cy="0" r="1" gradientUnits="userSpaceOnUse" gradientTransform="matrix(496.796,4.27244,4.27244,-496.796,467.759,524.077)" spreadMethod="pad" id="radialGradient30">
      <stop style="stop-opacity:1;stop-color:#ffffff" offset="0" id="stop22"/>
      <stop style="stop-opacity:1;stop-color:#ffffff" offset="0.270833" id="stop24"/>
      <stop style="stop-opacity:1;stop-color:#ffffff" offset="0.64902216" id="stop26"/>
      <stop style="stop-opacity:1;stop-color:#d6d7dd" offset="1" id="stop28"/>
    </radialGradient>
    <clipPath clipPathUnits="userSpaceOnUse" id="clipPath40">
      <path d="M 0,0 H 2570 V 1055.6 H 0 Z" id="path38" inkscape:connector-curvature="0"/>
    </clipPath>
    <clipPath clipPathUnits="userSpaceOnUse" id="clipPath50">
      <path d="m 1167.14,1011.51 c -51.41,32.46 -112.47,44.2 -177.359,39.9 C 798.09,1038.73 573.051,886.012 464.273,713.734 318.578,483.109 365.348,192.094 568.695,63.6289 628.297,26.0312 694.742,6.67188 762.535,3.82031 926.078,-3.23047 1097.57,85.8633 1200.53,248.883 c 145.63,230.664 169.93,634.285 -33.39,762.627" id="path48" inkscape:connector-curvature="0"/>
    </clipPath>
    <radialGradient fx="0" fy="0" cx="0" cy="0" r="1" gradientUnits="userSpaceOnUse" gradientTransform="matrix(496.749,4.27204,4.27204,-496.749,847.266,527.407)" spreadMethod="pad" id="radialGradient58">
      <stop style="stop-opacity:1;stop-color:#f7ed1a" offset="0" id="stop52"/>
      <stop style="stop-opacity:1;stop-color:#f7ed1a" offset="0.19" id="stop54"/>
      <stop style="stop-opacity:1;stop-color:#ef7c29" offset="1" id="stop56"/>
    </radialGradient>
    <clipPath clipPathUnits="userSpaceOnUse" id="clipPath68">
      <path d="M 0,0 V 1056 H 2570 V 0 Z" id="path66" inkscape:connector-curvature="0"/>
    </clipPath>
    <clipPath clipPathUnits="userSpaceOnUse" id="clipPath78">
      <path d="m 1558.6,1014.82 c -51.38,32.49 -112.46,44.25 -177.28,39.92 C 1189.67,1042.07 964.613,889.379 855.781,717.074 710.121,486.422 756.875,195.387 960.227,67.0078 1019.83,29.3594 1086.27,10.0312 1154.1,7.10156 1317.59,0.128906 1489.05,89.2539 1592.02,252.25 c 145.61,230.598 169.92,634.277 -33.42,762.57" id="path76" inkscape:connector-curvature="0"/>
    </clipPath>
    <radialGradient fx="0" fy="0" cx="0" cy="0" r="1" gradientUnits="userSpaceOnUse" gradientTransform="matrix(496.746,4.27201,4.27201,-496.746,1238.77,530.712)" spreadMethod="pad" id="radialGradient88">
      <stop style="stop-opacity:1;stop-color:#ffffff" offset="0" id="stop80"/>
      <stop style="stop-opacity:1;stop-color:#ffffff" offset="0.270833" id="stop82"/>
      <stop style="stop-opacity:1;stop-color:#ffffff" offset="0.64902216" id="stop84"/>
      <stop style="stop-opacity:1;stop-color:#d6d7dd" offset="1" id="stop86"/>
    </radialGradient>
    <clipPath clipPathUnits="userSpaceOnUse" id="clipPath98">
      <path d="M 0,0 V 1056 H 2570 V 0 Z" id="path96" inkscape:connector-curvature="0"/>
    </clipPath>
    <radialGradient xlink:href="#radialGradient58" id="radialGradient4600" gradientUnits="userSpaceOnUse" gradientTransform="matrix(708.93509,-6.0968397,6.0968397,708.93509,1240.1617,787.46646)" spreadMethod="pad" cx="0" cy="0" fx="0" fy="0" r="1"/>
    <radialGradient xlink:href="#radialGradient30" id="radialGradient4611" gradientUnits="userSpaceOnUse" gradientTransform="matrix(709.00216,-6.0974106,6.0974106,709.00216,702.58912,792.21887)" spreadMethod="pad" cx="0" cy="0" fx="0" fy="0" r="1"/>
    <radialGradient xlink:href="#radialGradient88" id="radialGradient4632" gradientUnits="userSpaceOnUse" gradientTransform="matrix(708.93081,-6.0967969,6.0967969,708.93081,1802.9371,782.74973)" spreadMethod="pad" cx="0" cy="0" fx="0" fy="0" r="1"/>
    <radialGradient xlink:href="#radialGradient30" id="radialGradient4687" gradientUnits="userSpaceOnUse" gradientTransform="matrix(496.796,4.27244,4.27244,-496.796,467.759,524.077)" spreadMethod="pad" cx="0" cy="0" fx="0" fy="0" r="1"/>
    <radialGradient xlink:href="#radialGradient58" id="radialGradient4689" gradientUnits="userSpaceOnUse" gradientTransform="matrix(496.749,4.27204,4.27204,-496.749,847.266,527.407)" spreadMethod="pad" cx="0" cy="0" fx="0" fy="0" r="1"/>
    <radialGradient xlink:href="#radialGradient88" id="radialGradient4691" gradientUnits="userSpaceOnUse" gradientTransform="matrix(496.746,4.27201,4.27201,-496.746,1238.77,530.712)" spreadMethod="pad" cx="0" cy="0" fx="0" fy="0" r="1"/>
    <style id="style4730">.cls-1{fill:#fdfdfd;}.cls-2{fill:#331604;}.cls-3{fill:#331504;}.cls-4{fill:#fcfcfc;}.cls-5{fill:#625149;}.cls-17,.cls-6{fill:#331503;}.cls-7{fill:#341604;}.cls-8{fill:#361907;}.cls-9{fill:#341706;}.cls-10{fill:#351807;}.cls-11{fill:#341705;}.cls-12{fill:#361a09;}.cls-13{fill:#351806;}.cls-14{fill:#361908;}.cls-15{fill:#fefdfd;}.cls-16{fill:#fcfbfb;}.cls-17{font-size:6px;font-family:ArialMT, Arial;}</style>
  </defs>
  <sodipodi:namedview id="base" pagecolor="#ffffff" bordercolor="#666666" borderopacity="1.0" inkscape:pageopacity="0.0" inkscape:pageshadow="2" inkscape:zoom="1.4142136" inkscape:cx="401.49632" inkscape:cy="147.54206" inkscape:document-units="mm" inkscape:current-layer="Layer_2" showgrid="false" inkscape:pagecheckerboard="true" fit-margin-top="0" fit-margin-left="0" fit-margin-right="0" fit-margin-bottom="0" inkscape:window-width="1920" inkscape:window-height="1017" inkscape:window-x="1912" inkscape:window-y="70" inkscape:window-maximized="1" inkscape:object-paths="true"/>
  <metadata id="metadata5">
    <rdf:RDF>
      <cc:Work rdf:about="">
        <dc:format>image/svg+xml</dc:format>
        <dc:type rdf:resource="http://purl.org/dc/dcmitype/StillImage"/>
        <dc:title/>
      </cc:Work>
    </rdf:RDF>
  </metadata>
  <g inkscape:label="Layer 1" inkscape:groupmode="layer" id="layer1" transform="translate(89.198548,-251.55649)">
    <g data-name="Layer 2" id="Layer_2" transform="matrix(0.26458333,0,0,0.26458333,63.601433,180.75927)">
      <g id="g4952" transform="matrix(0.51872027,0,0,0.51522288,-577.48498,267.63158)">
        <path id="path4902" d="m 456,69.2 h -57.2 c -5.2,0 -9.4,4.2 -9.4,9.4 v 12.8 c 0.1,3.4 2.9,6.1 6.3,6.1 h 9.4 c 0.3,0 0.5,0.1 0.7,0.4 0.2,0.3 0.3,0.7 0.2,1 L 383.6,166 c -0.2,0.4 -0.6,0.7 -1.1,0.6 -0.4,0 -0.8,-0.3 -0.9,-0.6 L 348.1,75.1 V 75 c -0.9,-2.2 -3,-3.8 -5.4,-3.9 h -20.2 c -2.4,0.2 -4.5,1.7 -5.5,3.9 v 0.1 L 283.5,166 c -0.1,0.4 -0.5,0.7 -0.9,0.7 -0.5,0 -0.9,-0.2 -1.1,-0.6 L 259.1,98.9 c -0.1,-0.3 0,-0.7 0.2,-1 0.2,-0.2 0.4,-0.4 0.7,-0.4 h 9.4 c 3.4,0 6.2,-2.7 6.3,-6.1 V 78.6 c 0,-5.2 -4.2,-9.4 -9.4,-9.4 h -57.2 c -2,0 -3.9,1 -5.1,2.6 -1.1,1.5 -1.5,3.5 -0.9,5.3 0.8,2.3 1.8,5.1 2.7,8 0.9,2.9 1.9,5.6 2.8,8.1 0.8,2.5 3.1,4.2 5.8,4.3 h 9.6 c 0.5,0 1,0.3 1.1,0.8 L 269.6,229 c 0.8,2.5 3.1,4.3 5.8,4.3 h 13.8 c 2.6,0 4.9,-1.6 5.8,-4 12.2,-35.4 35.6,-102.8 36.5,-105.1 0.1,-0.5 0.6,-0.9 1.1,-0.9 0.5,0 1,0.3 1.1,0.8 0.9,2.4 24.3,69.8 36.5,105.1 0.9,2.4 3.2,4 5.8,4.1 h 13.8 c 2.7,0 5,-1.8 5.8,-4.3 L 440,98.3 c 0.4,-0.8 0.9,-0.8 1.1,-0.8 h 9.6 c 2.6,0 4.9,-1.7 5.8,-4.2 0.9,-2.5 1.8,-5.4 2.8,-8.1 1,-2.7 2,-5.7 2.8,-8 0.6,-1.8 0.2,-3.8 -0.9,-5.3 -1.3,-1.7 -3.1,-2.7 -5.2,-2.7 z m 669.6,137.7 h -10.4 c -1.6,0 -2.9,-1.3 -2.9,-3 V 75.1 c 0,-2.3 -1.9,-4.2 -4.3,-4.1 h -30.4 c -1.3,0 -2.5,0.6 -3.3,1.6 l -12.6,15.7 c -1.5,1.8 -1.1,4.5 0.7,6 0.7,0.6 1.6,0.9 2.4,0.9 h 3.9 c 1.6,0.1 2.9,1.4 3,3 v 105.5 c 0,0.8 -0.3,1.7 -0.8,2.4 -3.3,4.3 -10.6,13.4 -14.2,17.9 -1.6,1.8 -1.4,4.5 0.4,6 0.8,0.7 1.7,1 2.7,1.1 h 53 c 1.1,0.1 2.2,-0.3 3,-1.2 l 12.4,-15.5 c 2.9,-3.4 0.9,-7.5 -2.6,-7.5 z" inkscape:connector-curvature="0" style="fill:#7f187f"/>
        <circle id="circle4904" cx="1091.8" cy="30.799999" r="22.799999" style="fill:#7f187f"/>
        <path id="path4906" d="m 1292.4,84.3 c 0,-2.2 -1.2,-4.3 -4.1,-4.3 h -5.3 v 13.9 h 2 v -5.1 h 1.8 l 3.5,5.1 h 2.3 l -3.7,-5.3 c 2.6,-0.2 3.5,-2.3 3.5,-4.3 z m -7.4,2.5 v -5.1 h 3.5 c 1.3,0.1 2.2,1.1 2.2,2.4 v 0.2 c 0.1,1.3 -0.8,2.4 -2,2.5 z" inkscape:connector-curvature="0" style="fill:#7f187f"/>
        <path id="path4908" d="m 1287.3,74.9 c -6.6,0 -12,5.4 -12,12 0,6.6 5.4,12 12,12 6.6,0 12,-5.4 12,-12 0,-6.6 -5.3,-12 -12,-12 z m 0,22.2 c -5.6,0 -10.2,-4.5 -10.2,-10.1 v -0.1 c -0.1,-5.5 4.3,-10.1 9.8,-10.2 h 0.4 c 5.6,0 10.2,4.6 10.2,10.2 0,5.6 -4.5,10.2 -10.2,10.2 z M 605.4,207.5 c -8.8,0.4 -13.2,-3.7 -13.2,-13.8 v -72.3 c 0,-31.6 -26.5,-51.7 -56.4,-51.7 -46.4,0 -63.1,22 -65,46.6 -0.1,2.4 1.7,4.4 4,4.5 h 23.1 c 2.2,-0.1 4,-1.8 4.1,-3.9 1.2,-12.8 9.8,-22.2 24.2,-22.2 15.9,0 25.5,8.1 25.5,26.3 v 15.7 h -8.3 c -28.5,0 -48.1,3.7 -61.3,12 -13.2,8.3 -19.8,23.6 -19.8,41.5 0,13.2 4.5,24 13.6,32.6 9.1,8.6 19.7,12.4 33.6,12.4 8.3,0 16.5,-1.9 24,-5.5 7.4,-3.3 14.2,-7.7 20.2,-13 1.2,-1.1 3.1,-1.1 4.2,0.1 0.2,0.2 0.4,0.4 0.5,0.7 6.5,11.4 13.6,15.1 27.1,15.1 12.2,0 18.1,-11.4 23.4,-18.3 2,-2.7 -0.2,-7 -3.5,-6.8 z m -53.5,-11.6 h -0.2 c 0,1 -1.6,2.4 -2.2,3 -3.7,3.1 -7.8,5.8 -12.2,7.9 -4,1.7 -8.3,2.5 -12.6,2.4 -6.3,0 -12.6,-2.4 -16.7,-6.9 -4.2,-4.6 -6.4,-10.7 -6.3,-16.9 0,-9.4 3.5,-15.7 10.6,-20.4 7.1,-4.7 18.7,-6.9 32.6,-6.9 h 6.9 z m 488.2,11.6 c -8.8,0.4 -13.2,-3.7 -13.2,-13.8 v -72.3 c 0,-31.6 -26.5,-51.7 -56.4,-51.7 -46.4,0 -63.1,22 -65,46.6 -0.1,2.4 1.7,4.4 4,4.5 h 23.1 c 2.2,-0.1 4,-1.8 4.1,-3.9 1.2,-12.8 9.8,-22.2 24.2,-22.2 15.9,0 25.5,8.1 25.5,26.3 v 15.7 h -8.2 c -28.5,0 -48.2,3.7 -61.3,12 -13.2,8.3 -19.9,23.6 -19.9,41.5 0,13.2 4.5,24 13.6,32.6 9.1,8.6 19.7,12.4 33.6,12.4 8.3,0 16.5,-1.9 24,-5.5 7.4,-3.3 14.2,-7.7 20.2,-13 1.2,-1.1 3.1,-1.1 4.2,0.1 0.2,0.2 0.4,0.4 0.5,0.7 6.5,11.4 13.6,15.1 27.1,15.1 12.2,0 18.1,-11.4 23.4,-18.3 2,-2.7 -0.2,-7 -3.5,-6.8 z m -53.4,-11.6 h -0.2 c 0,1 -1.6,2.4 -2.2,3 -3.7,3.1 -7.8,5.8 -12.2,7.9 -4,1.7 -8.3,2.5 -12.6,2.4 -6.3,0 -12.6,-2.4 -16.7,-6.9 -4.2,-4.6 -6.4,-10.7 -6.3,-16.9 0,-9.4 3.5,-15.7 10.6,-20.4 7.1,-4.7 18.7,-6.9 32.6,-6.9 h 6.9 v 37.8 z M 1255.6,70.4 c -2.1,-1.1 -7.4,-1.6 -12,-1.6 -7.4,0 -13.3,1 -18.4,3.2 l -0.4,0.2 c -1.9,0.9 -3.8,1.9 -5.5,3.2 -6.5,4 -12.2,9 -17.2,14.8 0,0 -2.2,1.7 -2.6,-1.1 V 74.6 c 0,-2.3 -1.9,-4.2 -4.2,-4.2 h -30.4 c -1.2,0 -2.4,0.5 -3.1,1.5 0,0 -9.6,11.9 -12.7,16 -1.9,2.4 -0.7,6.9 3.3,6.9 h 3.8 c 1.6,0 3,1.4 3,3 v 106 c 0,0.8 -0.2,1.7 -0.7,2.4 -3,3.7 -10.6,13.3 -14.3,18 -1.4,1.9 -1.1,4.5 0.8,6 0.7,0.6 1.6,0.9 2.5,0.9 h 65.7 c 2.3,0 4.2,-1.9 4.2,-4.2 V 211 c 0,-2.3 -1.9,-4.2 -4.2,-4.2 h -10.4 c -1.7,0 -3,-1.3 -3,-3 v -61.7 c 1.2,-29.3 18.7,-38.3 27.1,-40.9 l 1.2,-0.4 0.3,-0.1 c 2.3,-0.6 4.6,-0.9 7,-0.9 10,0 13.7,1.5 19.2,2.9 2.3,0.6 4.2,-1.9 4.2,-4.2 v -24 c -0.2,-1.9 -1.7,-3.4 -3.2,-4.1 z m -357.3,0.5 h -47.6 c -1.6,0 -3,-1.4 -3,-3 V 44.4 c 0,-11.4 5.9,-22.8 18.1,-22.8 13.8,0 15.9,11.6 16.5,20.4 0.1,2.2 1.9,4 4.1,4.1 h 19.7 c 2.2,-0.1 4,-1.9 3.9,-4.2 -0.4,-29.4 -19.1,-42 -49.1,-42 -18.3,0 -30.3,5.7 -39.3,16.7 -9,11 -13.6,23.3 -13.6,45.3 v 5.9 c 0,1.6 -1.3,2.9 -2.9,2.9 l -81.3,0.2 c -2.3,-0.1 -4.3,1.7 -4.3,4.1 v 16 c 0,2.4 2,4.3 4.3,4.3 h 8.7 c 1.7,0 3,1.4 3,3 0,0.4 -0.1,0.8 -0.2,1.1 0,0 -22.4,52.1 -31.4,72.9 -0.7,1.5 -2.4,2.2 -3.9,1.6 -0.7,-0.3 -1.2,-0.9 -1.6,-1.6 -9.2,-21 -31.8,-72.9 -31.8,-72.9 -0.6,-1.5 0.1,-3.3 1.6,-3.9 0.3,-0.1 0.7,-0.2 1.1,-0.2 h 6.1 c 2.4,0 4.3,-1.9 4.3,-4.3 V 75.1 c 0,-2.3 -1.9,-4.2 -4.3,-4.1 h -73.6 c -2.4,0 -4.3,2 -4.2,4.4 0,0.7 0.2,1.3 0.5,1.9 2.2,3.9 7.1,13.2 8.5,15.9 0.7,1.3 2.1,2.1 3.5,2.2 h 14.2 c 1.2,0 2.3,0.7 2.8,1.8 0,0 52.3,117.4 54.2,121.5 2,5.2 2,11 -0.1,16.3 -2.4,9.6 -18.5,26.8 -27.4,23.7 -6.1,-2.1 -6.9,-13.2 -14.2,-14.6 -1.4,-0.2 -2.7,-0.1 -4,0.5 -1.3,0.5 -13.2,15.8 -15.8,18.5 -1.3,1.7 -1.3,4 0,5.7 6.5,6.7 17.4,15.7 33.2,16.3 19.4,0.8 38.5,-1.8 56.2,-35.4 0,0 56.3,-137.6 63,-152.4 0.6,-1 1.6,-1.6 2.8,-1.6 h 29.7 c 1.6,0 3,1.3 3,2.9 v 105.7 c 0,0.9 -0.3,1.7 -0.8,2.4 -3.5,4.5 -10.6,13.4 -14.2,17.9 -1.5,1.8 -1.2,4.5 0.6,5.9 0.8,0.6 1.7,1 2.7,0.9 h 66.4 c 2.4,0 4.3,-1.9 4.3,-4.3 v -15.7 c 0,-2.4 -1.9,-4.3 -4.3,-4.3 H 851 c -1.6,0 -2.9,-1.3 -2.9,-3 V 98.2 c 0,-1.6 1.3,-2.9 2.9,-2.9 h 35.1 c 1.3,0 2.5,-0.6 3.3,-1.6 3,-3.9 9,-11.8 12.2,-15.9 1.4,-1.9 1.1,-4.5 -0.8,-6 -0.7,-0.5 -1.6,-0.9 -2.5,-0.9 z" inkscape:connector-curvature="0" style="fill:#7f187f"/>
        <path id="path4910" d="M 181.6,121.8 170.1,78.6 c -0.4,-1.5 -1.5,-2.6 -3,-3 L 123.9,64.1 c -1.4,-0.4 -3,0 -4,1.1 l -29,29 60.7,60.7 29,-29 c 1,-1.1 1.4,-2.7 1,-4.1 z" inkscape:connector-curvature="0" style="fill:#82d170"/>
        <path id="path4912" d="m 0.1,187.9 11.5,43.2 c 0.4,1.5 1.5,2.6 3,3 l 43.3,11.5 c 1.4,0.4 3,0 4,-1.1 l 29,-29 -60.6,-60.7 -29,29 c -1.1,1.1 -1.5,2.6 -1.2,4.1 z" inkscape:connector-curvature="0" style="fill:#f8cf1c"/>
        <path id="path4914" d="M 57.8,64.1 14.6,75.6 c -1.5,0.4 -2.6,1.5 -3,3 L 0.1,121.8 c -0.4,1.4 0,3 1.1,4 l 29,29 60.6,-60.6 -29,-29 c -1,-1.1 -2.5,-1.5 -4,-1.1 z" inkscape:connector-curvature="0" style="fill:#c6d636"/>
        <path id="path4916" d="m 180.1,183.4 -28.6,-28.6 -60.6,60.6 28.6,28.6 c 1.3,1.3 3.2,1.8 5,1.4 l 42.1,-11.2 c 1.8,-0.5 3.2,-1.9 3.7,-3.7 l 11.2,-42.1 c 0.4,-1.8 -0.1,-3.7 -1.4,-5 z" inkscape:connector-curvature="0" style="fill:#d57dea"/>
        <path id="path4918" d="m 90.9,94.2 -60.6,60.6 60.6,60.6 60.7,-60.6 z" inkscape:connector-curvature="0" style="fill:#7f187f"/>
        <path id="path4920" d="M 181.6,121.8 170.1,78.6 c -0.4,-1.5 -1.5,-2.6 -3,-3 L 123.9,64.1 c -1.4,-0.4 -3,0 -4,1.1 l -29,29 60.7,60.7 29,-29 c 1,-1.1 1.4,-2.7 1,-4.1 z" inkscape:connector-curvature="0" style="fill:#82d170"/>
        <path id="path4922" d="m 0.1,187.9 11.5,43.2 c 0.4,1.5 1.5,2.6 3,3 l 43.3,11.5 c 1.4,0.4 3,0 4,-1.1 l 29,-29 -60.6,-60.7 -29,29 c -1.1,1.1 -1.5,2.6 -1.2,4.1 z" inkscape:connector-curvature="0" style="fill:#f8cf1c"/>
        <path id="path4924" d="M 57.8,64.1 14.6,75.6 c -1.5,0.4 -2.6,1.5 -3,3 L 0.1,121.8 c -0.4,1.4 0,3 1.1,4 l 29,29 60.6,-60.6 -29,-29 c -1,-1.1 -2.5,-1.5 -4,-1.1 z" inkscape:connector-curvature="0" style="fill:#c6d636"/>
        <path id="path4926" d="m 180.1,183.4 -28.6,-28.6 -60.6,60.6 28.6,28.6 c 1.3,1.3 3.2,1.8 5,1.4 l 42.1,-11.2 c 1.8,-0.5 3.2,-1.9 3.7,-3.7 l 11.2,-42.1 c 0.4,-1.8 -0.1,-3.7 -1.4,-5 z" inkscape:connector-curvature="0" style="fill:#d57dea"/>
        <path id="path4928" d="m 90.9,94.2 -60.6,60.6 60.6,60.6 60.7,-60.6 z" inkscape:connector-curvature="0" style="fill:#7f187f"/>
      </g>
    </g>
  </g>
</svg>